<svg width="144" height="56" viewBox="0 0 144 56" fill="none" xmlns="http://www.w3.org/2000/svg">
<path d="M133.512 21.9953C135.299 22.3612 136.635 24.1314 136.214 26.0803C135.861 27.7058 134.342 28.8164 132.678 28.8164H115.581V35.7056H132.823C132.874 35.7056 132.921 35.7056 132.967 35.7014C136.567 35.4673 139.406 32.4759 139.406 28.8164C139.406 25.3484 136.848 22.4761 133.512 21.9953ZM132.508 21.9187C132.448 21.9187 132.389 21.9187 132.333 21.9229H132.687C132.627 21.9187 132.567 21.9187 132.508 21.9187Z" fill="url(#paint0_linear_2235_7440)"/>
<path d="M81.7216 16.9656V42.5991H74.7941V24.8718L80.4748 16.5869C80.4748 16.5869 80.4791 16.5784 80.4834 16.5741C80.5089 16.5401 80.5344 16.506 80.5684 16.4762C80.6833 16.3656 80.8408 16.2933 81.0153 16.2848H81.0706C81.2876 16.2933 81.4791 16.4082 81.5982 16.5741C81.6025 16.5784 81.6067 16.5826 81.6067 16.5869C81.6791 16.6975 81.7216 16.8252 81.7216 16.9656Z" fill="url(#paint1_linear_2235_7440)"/>
<path d="M71.9048 27.693H63.9731C63.4199 27.693 62.922 27.4462 62.5901 27.0547L61.0838 25.1314V16.9699C61.0838 16.5911 61.3902 16.289 61.7647 16.289C61.9944 16.289 62.1987 16.4039 62.3221 16.5784C62.3263 16.5826 62.3306 16.5869 62.3306 16.5911L67.9432 23.7527L70.407 26.8973C70.4453 26.9526 70.4836 27.0037 70.5262 27.0547C70.8581 27.4462 71.3559 27.693 71.9091 27.693H71.9048Z" fill="url(#paint2_linear_2235_7440)"/>
<path d="M81.0152 16.2848C80.8408 16.2933 80.6833 16.3656 80.5684 16.4762C80.5344 16.506 80.5089 16.5401 80.4833 16.5741C80.4791 16.5784 80.4748 16.5826 80.4748 16.5869L74.7941 24.8718L73.4069 26.8973C73.3686 26.9526 73.3303 27.0037 73.2835 27.0547C72.9558 27.4462 72.458 27.693 71.9048 27.693C71.3516 27.693 70.8537 27.4462 70.5218 27.0547C70.4793 27.0037 70.441 26.9526 70.4027 26.8973L67.9389 23.7527L73.5473 16.5911C73.5473 16.5911 73.5516 16.5826 73.5558 16.5784C73.6792 16.4039 73.8835 16.289 74.1132 16.289H80.6791L81.0152 16.2848Z" fill="url(#paint3_linear_2235_7440)"/>
<path d="M39.897 26.4462C39.8034 26.9441 39.697 27.4377 39.5651 27.9228C38.3524 32.5142 35.5311 36.4588 31.7355 39.1055C29.9185 40.3736 27.893 41.3353 25.7569 41.9353C24.6505 42.2459 23.5144 42.4587 22.3697 42.5693C21.1357 42.6927 19.8677 42.5948 18.6209 42.6331C16.3443 42.697 14.1784 42.9523 12.0168 43.7012C10.1189 44.3607 8.32323 45.3139 6.70624 46.5139C4.78713 47.9394 3.26376 49.6798 1.90209 51.6287C1.1404 52.7904 0.502117 54.0329 0 55.3477C0.719133 51.6925 1.96166 48.2202 3.64247 45.0203C3.65524 44.9905 3.67226 44.9607 3.68503 44.9309C3.99566 44.3395 4.32331 43.7523 4.66372 43.1778C4.67649 43.1523 4.69351 43.131 4.70628 43.1097C5.76158 41.4587 7.08069 39.9949 8.59981 38.7736C10.3104 37.3949 12.2678 36.3269 14.3614 35.646C16.706 34.8844 19.1443 34.7993 21.5825 34.595C25.0292 34.3056 28.5356 33.2886 31.744 32.0248C31.7568 32.0248 31.7695 32.0163 31.778 32.0078C32.4504 31.7653 33.1142 31.4844 33.7482 31.1695C36.0971 30.0164 38.1864 28.3994 39.8885 26.4462H39.897Z" fill="url(#paint4_linear_2235_7440)"/>
<path d="M58.2839 0C58.2839 0 58.2796 0.0297866 58.2754 0.0468075C58.152 0.702112 58.0073 1.35742 57.8413 1.9957C56.1946 8.22535 52.3649 13.5699 47.2245 17.1571C44.565 19.0081 41.5736 20.3825 38.4247 21.1698C34.8631 22.0634 31.1781 21.8123 27.5399 22.0761C19.106 22.6804 11.4253 26.9952 6.78288 34.1269C5.75311 35.7099 4.88079 37.4077 4.19995 39.1992C5.20418 34.0929 6.94883 29.2589 9.32325 24.8037C9.67218 24.1527 10.0339 23.5101 10.4083 22.8761C11.8721 20.523 13.7189 18.4294 15.8678 16.6975C18.1018 14.9018 20.6379 13.4976 23.3485 12.5742C27.2463 11.2466 31.344 11.3955 35.361 10.7742C39.4247 10.1445 43.4161 9.06363 47.2416 7.55728C47.2543 7.54877 47.2714 7.54026 47.2884 7.53601C48.2671 7.18282 49.2245 6.77432 50.1479 6.3105C53.2585 4.74883 56.0243 2.59569 58.2839 0Z" fill="url(#paint5_linear_2235_7440)"/>
<path d="M58.2839 0C58.2839 0 58.2796 0.0297866 58.2754 0.0468075C56.1733 4.44671 53.2797 8.23386 49.8287 11.1232C47.0075 13.4848 43.8374 15.2337 40.5013 16.2379C36.7226 17.3783 32.8121 17.0549 28.9526 17.3869C20.0081 18.1571 11.8636 23.6548 6.94032 32.7355C5.84673 34.7567 4.91908 36.9183 4.19995 39.1992C5.20418 34.0929 6.94883 29.2589 9.32325 24.8037C9.67218 24.1527 10.0339 23.5101 10.4083 22.8761C11.8721 20.523 13.7189 18.4294 15.8678 16.6975C18.1018 14.9018 20.6379 13.4976 23.3485 12.5742C27.2463 11.2466 31.344 11.3955 35.361 10.7742C39.4247 10.1445 43.4161 9.06363 47.2416 7.55728C47.2543 7.54877 47.2714 7.54026 47.2884 7.53601C48.2671 7.18282 49.2245 6.77432 50.1479 6.3105C53.2585 4.74883 56.0243 2.59569 58.2839 0Z" fill="url(#paint6_linear_2235_7440)"/>
<path d="M39.897 26.4462C39.897 26.4462 39.897 26.4675 39.8928 26.4803C38.3439 29.727 36.2077 32.5185 33.6631 34.6503C31.5823 36.3907 29.2462 37.68 26.7824 38.4247C23.9952 39.2672 21.1102 39.0289 18.2634 39.2715C11.6678 39.8374 5.65946 43.8927 2.02975 50.5904C1.22125 52.0797 0.540418 53.6754 0.0085144 55.3563C0.748924 51.5904 2.034 48.0245 3.78716 44.7395C4.04247 44.2586 4.31055 43.7863 4.58714 43.3182C5.66797 41.5821 7.02964 40.0374 8.61258 38.7609C10.2594 37.4375 12.1317 36.3992 14.1316 35.7184C17.0081 34.7397 20.0294 34.8503 22.991 34.3907C25.9867 33.9269 28.9313 33.1269 31.7525 32.0163C31.761 32.0121 31.7738 32.0036 31.7865 31.9993C32.5099 31.7397 33.2163 31.4376 33.8971 31.0972C36.1907 29.944 38.2332 28.3568 39.897 26.442V26.4462Z" fill="url(#paint7_linear_2235_7440)"/>
<path d="M105.355 32.1312H105.364C107.406 31.4078 108.866 29.4589 108.866 27.1739C108.866 24.2676 106.508 21.9102 103.602 21.9102C103.491 21.9102 103.376 21.9144 103.266 21.9229H103.721C104.47 21.9229 105.176 22.3484 105.457 23.042C105.925 24.208 104.964 25.3526 103.845 25.3526H91.798C87.9725 25.3526 84.8705 28.4547 84.8705 32.2801V42.5991H91.798V32.2418H97.0277L104.245 42.5991H112.615L105.355 32.1312Z" fill="url(#paint8_linear_2235_7440)"/>
<path d="M112.168 21.4251C113.5 26.3952 110.172 31.3015 105.364 32.1312C107.406 31.4078 108.866 29.4589 108.866 27.1739C108.866 24.2676 106.508 21.9102 103.602 21.9102C103.491 21.9102 103.376 21.9144 103.266 21.9229H91.798C87.9725 21.9229 84.8705 18.8209 84.8705 14.9954H103.572C107.547 14.9954 111.142 17.5869 112.172 21.4251H112.168Z" fill="url(#paint9_linear_2235_7440)"/>
<path d="M143.18 25.408C143.15 31.0121 138.563 35.629 132.967 35.7014C136.567 35.4673 139.406 32.4759 139.406 28.8164C139.406 25.3484 136.848 22.4761 133.512 21.9953C133.499 21.991 133.491 21.9868 133.478 21.9868C133.265 21.9442 133.044 21.9229 132.823 21.9229H132.687C132.627 21.9187 132.567 21.9187 132.508 21.9187C132.448 21.9187 132.389 21.9187 132.333 21.9229H115.581V15.0337H132.618C138.325 15.0337 143.21 19.7017 143.18 25.408Z" fill="url(#paint10_linear_2235_7440)"/>
<path d="M91.798 32.2419V42.5991H84.8705V39.1694C84.8705 35.3439 87.9725 32.2419 91.798 32.2419Z" fill="url(#paint11_linear_2235_7440)"/>
<path d="M61.7604 16.289C61.3859 16.289 61.0795 16.5911 61.0795 16.9699V42.5991H54.152V16.9571C54.152 16.9188 54.1562 16.8847 54.1605 16.8465C54.1605 16.8422 54.1605 16.8379 54.1648 16.8337C54.1903 16.706 54.2541 16.5826 54.352 16.4848C54.4754 16.3614 54.6286 16.2975 54.7903 16.289H61.7604Z" fill="url(#paint12_linear_2235_7440)"/>
<path d="M122.47 21.9229H115.581V42.5991H122.47V21.9229Z" fill="url(#paint13_linear_2235_7440)"/>
<path d="M44.548 42.5991C44.4416 42.5906 44.3395 42.5778 44.2416 42.5608C42.9863 42.3608 41.9183 41.5948 41.3183 40.5268C41.1906 40.3055 41.0842 40.0672 41.0034 39.8204C40.897 39.514 40.8289 39.1864 40.8034 38.8545C42.8672 38.863 44.5395 40.5395 44.5523 42.5991H44.548Z" fill="url(#paint14_linear_2235_7440)"/>
<path d="M43.182 38.0672C43.182 38.3566 43.2076 38.6417 43.2671 38.9225C42.982 38.7311 42.6756 38.5736 42.3522 38.4502C42.2799 37.9992 42.2842 37.5396 42.3735 37.0843C42.6714 37.1609 42.9607 37.2715 43.2288 37.4205C43.1948 37.6332 43.182 37.846 43.182 38.0672Z" fill="url(#paint15_linear_2235_7440)"/>
<path d="M45.4288 39.9608C45.3565 40.0842 45.2714 40.2076 45.1863 40.3268C45.1012 40.4417 45.0075 40.5523 44.9054 40.6587C44.2416 39.9651 43.8671 39.0375 43.8671 38.0673C43.8671 37.0971 44.2416 36.1694 44.9054 35.4758C45.5692 36.1737 45.9437 37.1013 45.9437 38.0673C45.9437 38.7396 45.765 39.3906 45.4331 39.9608H45.4288Z" fill="url(#paint16_linear_2235_7440)"/>
<path d="M46.6246 38.0672C46.6246 37.8502 46.6075 37.6332 46.5778 37.4205C46.8458 37.2758 47.1352 37.1651 47.433 37.0885C47.5224 37.5396 47.5267 37.9992 47.4543 38.446C47.1309 38.5651 46.8245 38.7226 46.5437 38.9098C46.599 38.6332 46.6246 38.3523 46.6246 38.0672Z" fill="url(#paint17_linear_2235_7440)"/>
<path d="M45.1267 34.7439L44.9012 34.5439L44.6757 34.7439C44.0672 35.2843 43.6289 35.9737 43.3864 36.7354C43.0076 36.5524 42.5991 36.4205 42.1736 36.3524L41.8757 36.3013L41.7907 36.5907C41.6332 37.1354 41.5821 37.697 41.6332 38.246C41.3651 38.1949 41.0843 38.1694 40.8034 38.1651C40.9779 36.0588 42.7396 34.4035 44.8927 34.4035C47.0458 34.4035 48.8075 36.0588 48.982 38.1651C48.7054 38.1651 48.4331 38.1907 48.1735 38.2417C48.2246 37.6928 48.1735 37.1311 48.016 36.5864L47.9309 36.2971L47.6331 36.3481C47.2075 36.4162 46.799 36.5481 46.4203 36.7311C46.182 35.9694 45.7395 35.2801 45.131 34.7397L45.1267 34.7439Z" fill="url(#paint18_linear_2235_7440)"/>
<path d="M48.9777 38.8502C48.9521 39.1864 48.8841 39.5098 48.7777 39.8162C48.6968 40.063 48.5904 40.3012 48.4628 40.5268C47.8628 41.5863 46.8075 42.3523 45.565 42.5565C45.4543 42.5735 45.3437 42.5906 45.2331 42.5991C45.2331 41.9097 45.4245 41.2629 45.7564 40.7098C45.8245 40.5906 45.9011 40.4757 45.9862 40.3608C46.6671 39.4502 47.7564 38.8587 48.9777 38.8545V38.8502Z" fill="url(#paint19_linear_2235_7440)"/>
<path d="M45.182 40.3268C45.2714 40.2119 45.3522 40.0885 45.4246 39.9608C45.3352 40.0757 45.2544 40.1991 45.182 40.3268Z" fill="url(#paint20_linear_2235_7440)"/>
<path d="M45.7564 40.7055C45.8373 40.5948 45.9139 40.48 45.9862 40.3566C45.9011 40.4672 45.8245 40.5821 45.7564 40.7055Z" fill="url(#paint21_linear_2235_7440)"/>
<path d="M97.0277 32.2419C97.0277 32.2419 102.44 32.395 105.364 32.1312L112.615 42.5991H104.245" fill="url(#paint22_linear_2235_7440)"/>
<defs>
<linearGradient id="paint0_linear_2235_7440" x1="115.581" y1="28.8121" x2="139.406" y2="28.8121" gradientUnits="userSpaceOnUse">
<stop stopColor="#0375F3"/>
<stop offset="1" stopColor="#013DA0"/>
</linearGradient>
<linearGradient id="paint1_linear_2235_7440" x1="87.5725" y1="21.0889" x2="72.5133" y2="40.8587" gradientUnits="userSpaceOnUse">
<stop stopColor="#013DA0"/>
<stop offset="1" stopColor="#0375F3"/>
</linearGradient>
<linearGradient id="paint2_linear_2235_7440" x1="69.2921" y1="29.8504" x2="59.4796" y2="17.9656" gradientUnits="userSpaceOnUse">
<stop stopColor="#0375F3"/>
<stop offset="1" stopColor="#013DA0"/>
</linearGradient>
<linearGradient id="paint3_linear_2235_7440" x1="78.4578" y1="14.455" x2="69.7729" y2="26.5867" gradientUnits="userSpaceOnUse">
<stop stopColor="#0375F3"/>
<stop offset="1" stopColor="#013DA0"/>
</linearGradient>
<linearGradient id="paint4_linear_2235_7440" x1="-3.71481" y1="56.3775" x2="41.531" y2="23.3229" gradientUnits="userSpaceOnUse">
<stop stopColor="#0375F3"/>
<stop offset="1" stopColor="#013DA0"/>
</linearGradient>
<linearGradient id="paint5_linear_2235_7440" x1="1.99149" y1="37.7481" x2="56.786" y2="-0.906353" gradientUnits="userSpaceOnUse">
<stop stopColor="#0375F3"/>
<stop offset="1" stopColor="#013DA0"/>
</linearGradient>
<linearGradient id="paint6_linear_2235_7440" x1="4.71483" y1="40.9353" x2="47.599" y2="-0.280837" gradientUnits="userSpaceOnUse">
<stop stopColor="#013DA0"/>
<stop offset="1" stopColor="#0375F3"/>
</linearGradient>
<linearGradient id="paint7_linear_2235_7440" x1="-1.7106" y1="55.5648" x2="30.0845" y2="29.3143" gradientUnits="userSpaceOnUse">
<stop stopColor="#013DA0"/>
<stop offset="1" stopColor="#0375F3"/>
</linearGradient>
<linearGradient id="paint8_linear_2235_7440" x1="109.202" y1="26.6207" x2="79.5515" y2="52.8669" gradientUnits="userSpaceOnUse">
<stop stopColor="#013DA0"/>
<stop offset="1" stopColor="#0375F3"/>
</linearGradient>
<linearGradient id="paint9_linear_2235_7440" x1="84.8705" y1="23.5612" x2="112.466" y2="23.5612" gradientUnits="userSpaceOnUse">
<stop stopColor="#013DA0"/>
<stop offset="1" stopColor="#0375F3"/>
</linearGradient>
<linearGradient id="paint10_linear_2235_7440" x1="142.818" y1="30.2759" x2="117.04" y2="15.6167" gradientUnits="userSpaceOnUse">
<stop stopColor="#0375F3"/>
<stop offset="1" stopColor="#013DA0"/>
</linearGradient>
<linearGradient id="paint11_linear_2235_7440" x1="91.6746" y1="43.2969" x2="85.9045" y2="33.144" gradientUnits="userSpaceOnUse">
<stop stopColor="#013DA0"/>
<stop offset="1" stopColor="#0375F3"/>
</linearGradient>
<linearGradient id="paint12_linear_2235_7440" x1="57.9562" y1="16.289" x2="57.9562" y2="42.5991" gradientUnits="userSpaceOnUse">
<stop stopColor="#0375F3"/>
<stop offset="1" stopColor="#013DA0"/>
</linearGradient>
<linearGradient id="paint13_linear_2235_7440" x1="116.342" y1="19.7528" x2="121.887" y2="45.6118" gradientUnits="userSpaceOnUse">
<stop stopColor="#0375F3"/>
<stop offset="1" stopColor="#013DA0"/>
</linearGradient>
<linearGradient id="paint14_linear_2235_7440" x1="42.6757" y1="42.6629" x2="42.6757" y2="34.3865" gradientUnits="userSpaceOnUse">
<stop stopColor="#0375F3"/>
<stop offset="1" stopColor="#013DA0"/>
</linearGradient>
<linearGradient id="paint15_linear_2235_7440" x1="42.782" y1="42.6629" x2="42.782" y2="34.3865" gradientUnits="userSpaceOnUse">
<stop stopColor="#0375F3"/>
<stop offset="1" stopColor="#013DA0"/>
</linearGradient>
<linearGradient id="paint16_linear_2235_7440" x1="44.9011" y1="42.6629" x2="44.9011" y2="34.3865" gradientUnits="userSpaceOnUse">
<stop stopColor="#0375F3"/>
<stop offset="1" stopColor="#013DA0"/>
</linearGradient>
<linearGradient id="paint17_linear_2235_7440" x1="47.0203" y1="42.6629" x2="47.0203" y2="34.3865" gradientUnits="userSpaceOnUse">
<stop stopColor="#0375F3"/>
<stop offset="1" stopColor="#013DA0"/>
</linearGradient>
<linearGradient id="paint18_linear_2235_7440" x1="44.8927" y1="42.6629" x2="44.8927" y2="34.3865" gradientUnits="userSpaceOnUse">
<stop stopColor="#0375F3"/>
<stop offset="1" stopColor="#013DA0"/>
</linearGradient>
<linearGradient id="paint19_linear_2235_7440" x1="47.1054" y1="42.6629" x2="47.1054" y2="34.3865" gradientUnits="userSpaceOnUse">
<stop stopColor="#0375F3"/>
<stop offset="1" stopColor="#013DA0"/>
</linearGradient>
<linearGradient id="paint20_linear_2235_7440" x1="45.3054" y1="42.6629" x2="45.3054" y2="34.3865" gradientUnits="userSpaceOnUse">
<stop stopColor="#0375F3"/>
<stop offset="1" stopColor="#013DA0"/>
</linearGradient>
<linearGradient id="paint21_linear_2235_7440" x1="45.8671" y1="42.6629" x2="45.8671" y2="34.3864" gradientUnits="userSpaceOnUse">
<stop stopColor="#0375F3"/>
<stop offset="1" stopColor="#013DA0"/>
</linearGradient>
<linearGradient id="paint22_linear_2235_7440" x1="99.0702" y1="29.2207" x2="107.032" y2="40.531" gradientUnits="userSpaceOnUse">
<stop stopColor="#1F9285"/>
<stop offset="1" stopColor="#1FC583"/>
</linearGradient>
</defs>
</svg>
