<svg width="1920" height="221" viewBox="0 0 1920 221" fill="none" xmlns="http://www.w3.org/2000/svg">
<path d="M643.501 14.365C735.087 8.84 852.204 15.249 949.464 26.078C1045.1 36.907 1236.78 78.013 1356.74 104.975C1663.92 176.137 1898.55 203.32 2137.25 214.812C2232.88 219.453 2334.6 222.547 2556.27 209.287C2777.94 196.027 2986.65 152.711 2986.65 152.711V0H-1066.24V66.963C-1066.24 66.963 -774.461 139.009 -424.327 134.368C-265.47 132.821 -48.257 119.561 118.705 84.864C204.618 66.963 330.245 44.642 441.688 31.382C551.915 17.459 601.761 16.575 643.501 14.365Z" fill="#BA90FF" fill-opacity="0.09"/>
</svg>
